{
    "asset" : {
        "generator" : "Khronos glTF Blender I/O v3.2.37",
        "version" : "2.0"
    },
    "scene" : 0,
    "scenes" : [
        {
            "name" : "Scene",
            "nodes" : [
                0
            ]
        }
    ],
    "nodes" : [
        {
            "mesh" : 0,
            "name" : "\u5e73\u9762.001",
            "translation" : [
                -0.006260844878852367,
                1.7430834770202637,
                -0.10310718417167664
            ]
        }
    ],
    "materials" : [
        {
            "doubleSided" : true,
            "name" : "\u6750\u8d28",
            "pbrMetallicRoughness" : {
                "baseColorTexture" : {
                    "index" : 0
                },
                "metallicFactor" : 0,
                "roughnessFactor" : 0.07480315119028091
            }
        }
    ],
    "meshes" : [
        {
            "name" : "\u5e73\u9762.002",
            "primitives" : [
                {
                    "attributes" : {
                        "POSITION" : 0,
                        "NORMAL" : 1,
                        "TEXCOORD_0" : 2,
                        "TEXCOORD_1" : 3
                    },
                    "indices" : 4,
                    "material" : 0
                }
            ]
        }
    ],
    "textures" : [
        {
            "sampler" : 0,
            "source" : 0
        }
    ],
    "images" : [
        {
            "bufferView" : 5,
            "mimeType" : "image/jpeg",
            "name" : "aaa"
        }
    ],
    "accessors" : [
        {
            "bufferView" : 0,
            "componentType" : 5126,
            "count" : 2193,
            "max" : [
                0.23679958283901215,
                0.02071891725063324,
                1.103107213973999
            ],
            "min" : [
                -0.17445793747901917,
                -1.7430834770202637,
                -0.896892786026001
            ],
            "type" : "VEC3"
        },
        {
            "bufferView" : 1,
            "componentType" : 5126,
            "count" : 2193,
            "type" : "VEC3"
        },
        {
            "bufferView" : 2,
            "componentType" : 5126,
            "count" : 2193,
            "type" : "VEC2"
        },
        {
            "bufferView" : 3,
            "componentType" : 5126,
            "count" : 2193,
            "type" : "VEC2"
        },
        {
            "bufferView" : 4,
            "componentType" : 5123,
            "count" : 5112,
            "type" : "SCALAR"
        }
    ],
    "bufferViews" : [
        {
            "buffer" : 0,
            "byteLength" : 26316,
            "byteOffset" : 0
        },
        {
            "buffer" : 0,
            "byteLength" : 26316,
            "byteOffset" : 26316
        },
        {
            "buffer" : 0,
            "byteLength" : 17544,
            "byteOffset" : 52632
        },
        {
            "buffer" : 0,
            "byteLength" : 17544,
            "byteOffset" : 70176
        },
        {
            "buffer" : 0,
            "byteLength" : 10224,
            "byteOffset" : 87720
        },
        {
            "buffer" : 0,
            "byteLength" : 1182185,
            "byteOffset" : 97944
        }
    ],
    "samplers" : [
        {
            "magFilter" : 9729,
            "minFilter" : 9987
        }
    ],
    "buffers" : [
        {
            "byteLength" : 1280132,
            "uri" : "data:application/octet-stream;base64,"
        }
    ]
}
