{
    "asset" : {
        "generator" : "Khronos glTF Blender I/O v3.2.37",
        "version" : "2.0"
    },
    "extensionsUsed" : [
        "KHR_materials_transmission"
    ],
    "scene" : 0,
    "scenes" : [
        {
            "name" : "Scene",
            "nodes" : [
                0,
                1,
                2,
                3
            ]
        }
    ],
    "nodes" : [
        {
            "mesh" : 0,
            "name" : "\u5e73\u9762",
            "translation" : [
                0,
                0.029574494808912277,
                0.14546534419059753
            ]
        },
        {
            "mesh" : 1,
            "name" : "\u5e73\u9762.001",
            "translation" : [
                0,
                0.7105400562286377,
                -0.5579956769943237
            ]
        },
        {
            "mesh" : 2,
            "name" : "\u5e73\u9762.004",
            "rotation" : [
                0.7071068286895752,
                0,
                0,
                0.7071068286895752
            ],
            "scale" : [
                0.2241266965866089,
                0.2241266965866089,
                0.2241266965866089
            ],
            "translation" : [
                0.8143577575683594,
                -0.17774128913879395,
                -0.46423017978668213
            ]
        },
        {
            "mesh" : 3,
            "name" : "\u5e73\u9762.003",
            "translation" : [
                -0.7261046767234802,
                -0.760595440864563,
                0.09605839103460312
            ]
        }
    ],
    "materials" : [
        {
            "doubleSided" : true,
            "name" : "\u6750\u8d28.001",
            "pbrMetallicRoughness" : {
                "baseColorTexture" : {
                    "index" : 0
                },
                "metallicFactor" : 0.874015748500824,
                "roughnessFactor" : 0.33070865273475647
            }
        },
        {
            "alphaMode" : "BLEND",
            "doubleSided" : true,
            "extensions" : {
                "KHR_materials_transmission" : {
                    "transmissionFactor" : 1
                }
            },
            "name" : "\u6750\u8d28",
            "pbrMetallicRoughness" : {
                "baseColorFactor" : [
                    0.005741105880588293,
                    0.18781645596027374,
                    0.15460744500160217,
                    0.5
                ],
                "metallicFactor" : 0,
                "roughnessFactor" : 0.09842520952224731
            }
        },
        {
            "alphaMode" : "BLEND",
            "doubleSided" : true,
            "name" : "\u6750\u8d28.005",
            "pbrMetallicRoughness" : {
                "baseColorTexture" : {
                    "index" : 1
                },
                "metallicFactor" : 0,
                "roughnessFactor" : 0.5
            }
        }
    ],
    "meshes" : [
        {
            "name" : "\u5e73\u9762",
            "primitives" : [
                {
                    "attributes" : {
                        "POSITION" : 0,
                        "NORMAL" : 1,
                        "TEXCOORD_0" : 2
                    },
                    "indices" : 3,
                    "material" : 0
                },
                {
                    "attributes" : {
                        "POSITION" : 4,
                        "NORMAL" : 5,
                        "TEXCOORD_0" : 6
                    },
                    "indices" : 7,
                    "material" : 0
                }
            ]
        },
        {
            "name" : "\u5e73\u9762.001",
            "primitives" : [
                {
                    "attributes" : {
                        "POSITION" : 8,
                        "NORMAL" : 9,
                        "TEXCOORD_0" : 10
                    },
                    "indices" : 11,
                    "material" : 1
                }
            ]
        },
        {
            "name" : "\u5e73\u9762.006",
            "primitives" : [
                {
                    "attributes" : {
                        "POSITION" : 12,
                        "NORMAL" : 13,
                        "TEXCOORD_0" : 14
                    },
                    "indices" : 15,
                    "material" : 0
                }
            ]
        },
        {
            "name" : "\u5e73\u9762.003",
            "primitives" : [
                {
                    "attributes" : {
                        "POSITION" : 16,
                        "NORMAL" : 17,
                        "TEXCOORD_0" : 18
                    },
                    "indices" : 19,
                    "material" : 2
                }
            ]
        }
    ],
    "textures" : [
        {
            "sampler" : 0,
            "source" : 0
        },
        {
            "sampler" : 0,
            "source" : 1
        }
    ],
    "images" : [
        {
            "bufferView" : 4,
            "mimeType" : "image/jpeg",
            "name" : "texture"
        },
        {
            "bufferView" : 21,
            "mimeType" : "image/png",
            "name" : "texture_a-texture_a_a1"
        }
    ],
    "accessors" : [
        {
            "bufferView" : 0,
            "componentType" : 5126,
            "count" : 958,
            "max" : [
                0.7666420340538025,
                0.9704256057739258,
                0.8545346260070801
            ],
            "min" : [
                -0.7666423916816711,
                -1.0295745134353638,
                -0.7319972515106201
            ],
            "type" : "VEC3"
        },
        {
            "bufferView" : 1,
            "componentType" : 5126,
            "count" : 958,
            "type" : "VEC3"
        },
        {
            "bufferView" : 2,
            "componentType" : 5126,
            "count" : 958,
            "type" : "VEC2"
        },
        {
            "bufferView" : 3,
            "componentType" : 5123,
            "count" : 2562,
            "type" : "SCALAR"
        },
        {
            "bufferView" : 5,
            "componentType" : 5126,
            "count" : 90,
            "max" : [
                0.726004421710968,
                0.9021490216255188,
                0.7892087697982788
            ],
            "min" : [
                -0.7260046601295471,
                -0.9606761932373047,
                -0.6682837009429932
            ],
            "type" : "VEC3"
        },
        {
            "bufferView" : 6,
            "componentType" : 5126,
            "count" : 90,
            "type" : "VEC3"
        },
        {
            "bufferView" : 7,
            "componentType" : 5126,
            "count" : 90,
            "type" : "VEC2"
        },
        {
            "bufferView" : 8,
            "componentType" : 5123,
            "count" : 318,
            "type" : "SCALAR"
        },
        {
            "bufferView" : 9,
            "componentType" : 5126,
            "count" : 160,
            "max" : [
                0.5897744297981262,
                0.2946091294288635,
                1.5489182472229004
            ],
            "min" : [
                -0.589774489402771,
                -0.37226158380508423,
                -0.016814589500427246
            ],
            "type" : "VEC3"
        },
        {
            "bufferView" : 10,
            "componentType" : 5126,
            "count" : 160,
            "type" : "VEC3"
        },
        {
            "bufferView" : 11,
            "componentType" : 5126,
            "count" : 160,
            "type" : "VEC2"
        },
        {
            "bufferView" : 12,
            "componentType" : 5123,
            "count" : 444,
            "type" : "SCALAR"
        },
        {
            "bufferView" : 13,
            "componentType" : 5126,
            "count" : 630,
            "max" : [
                0.1262768805027008,
                6.042336463928223,
                3.147214651107788
            ],
            "min" : [
                -7.393220901489258,
                -0.94368577003479,
                -4.403597831726074
            ],
            "type" : "VEC3"
        },
        {
            "bufferView" : 14,
            "componentType" : 5126,
            "count" : 630,
            "type" : "VEC3"
        },
        {
            "bufferView" : 15,
            "componentType" : 5126,
            "count" : 630,
            "type" : "VEC2"
        },
        {
            "bufferView" : 16,
            "componentType" : 5123,
            "count" : 3024,
            "type" : "SCALAR"
        },
        {
            "bufferView" : 17,
            "componentType" : 5126,
            "count" : 12,
            "max" : [
                1.3321558237075806,
                1.0798301696777344,
                0.8931326866149902
            ],
            "min" : [
                -5.960464477539063e-08,
                -0.08982899785041809,
                -0.19389674067497253
            ],
            "type" : "VEC3"
        },
        {
            "bufferView" : 18,
            "componentType" : 5126,
            "count" : 12,
            "type" : "VEC3"
        },
        {
            "bufferView" : 19,
            "componentType" : 5126,
            "count" : 12,
            "type" : "VEC2"
        },
        {
            "bufferView" : 20,
            "componentType" : 5123,
            "count" : 18,
            "type" : "SCALAR"
        }
    ],
    "bufferViews" : [
        {
            "buffer" : 0,
            "byteLength" : 11496,
            "byteOffset" : 0
        },
        {
            "buffer" : 0,
            "byteLength" : 11496,
            "byteOffset" : 11496
        },
        {
            "buffer" : 0,
            "byteLength" : 7664,
            "byteOffset" : 22992
        },
        {
            "buffer" : 0,
            "byteLength" : 5124,
            "byteOffset" : 30656
        },
        {
            "buffer" : 0,
            "byteLength" : 634931,
            "byteOffset" : 35780
        },
        {
            "buffer" : 0,
            "byteLength" : 1080,
            "byteOffset" : 670712
        },
        {
            "buffer" : 0,
            "byteLength" : 1080,
            "byteOffset" : 671792
        },
        {
            "buffer" : 0,
            "byteLength" : 720,
            "byteOffset" : 672872
        },
        {
            "buffer" : 0,
            "byteLength" : 636,
            "byteOffset" : 673592
        },
        {
            "buffer" : 0,
            "byteLength" : 1920,
            "byteOffset" : 674228
        },
        {
            "buffer" : 0,
            "byteLength" : 1920,
            "byteOffset" : 676148
        },
        {
            "buffer" : 0,
            "byteLength" : 1280,
            "byteOffset" : 678068
        },
        {
            "buffer" : 0,
            "byteLength" : 888,
            "byteOffset" : 679348
        },
        {
            "buffer" : 0,
            "byteLength" : 7560,
            "byteOffset" : 680236
        },
        {
            "buffer" : 0,
            "byteLength" : 7560,
            "byteOffset" : 687796
        },
        {
            "buffer" : 0,
            "byteLength" : 5040,
            "byteOffset" : 695356
        },
        {
            "buffer" : 0,
            "byteLength" : 6048,
            "byteOffset" : 700396
        },
        {
            "buffer" : 0,
            "byteLength" : 144,
            "byteOffset" : 706444
        },
        {
            "buffer" : 0,
            "byteLength" : 144,
            "byteOffset" : 706588
        },
        {
            "buffer" : 0,
            "byteLength" : 96,
            "byteOffset" : 706732
        },
        {
            "buffer" : 0,
            "byteLength" : 36,
            "byteOffset" : 706828
        },
        {
            "buffer" : 0,
            "byteLength" : 1100357,
            "byteOffset" : 706864
        }
    ],
    "samplers" : [
        {
            "magFilter" : 9729,
            "minFilter" : 9987
        }
    ],
    "buffers" : [
        {
            "byteLength" : 1807224,
            "uri" : "data:application/octet-stream;base64,"
        }
    ]
}
