{
    "asset" : {
        "generator" : "Khronos glTF Blender I/O v3.2.37",
        "version" : "2.0"
    },
    "scene" : 0,
    "scenes" : [
        {
            "name" : "Scene",
            "nodes" : [
                0,
                1
            ]
        }
    ],
    "nodes" : [
        {
            "mesh" : 0,
            "name" : "\u67f1\u4f53.002",
            "rotation" : [
                0,
                -0.17608310282230377,
                0,
                0.9843752980232239
            ],
            "scale" : [
                0.792310357093811,
                0.792310357093811,
                0.792310357093811
            ],
            "translation" : [
                0.2535546123981476,
                0.32747113704681396,
                -0.6951913237571716
            ]
        },
        {
            "mesh" : 1,
            "name" : "\u67f1\u4f53",
            "rotation" : [
                0,
                -0.04394994676113129,
                0,
                0.9990337491035461
            ],
            "scale" : [
                0.7923102974891663,
                0.792310357093811,
                0.7923102974891663
            ],
            "translation" : [
                0,
                0.8250329494476318,
                0
            ]
        }
    ],
    "materials" : [
        {
            "alphaMode" : "BLEND",
            "doubleSided" : true,
            "name" : "\u6750\u8d28.006",
            "pbrMetallicRoughness" : {
                "baseColorTexture" : {
                    "index" : 0
                },
                "metallicFactor" : 0,
                "roughnessFactor" : 0.5
            }
        },
        {
            "doubleSided" : true,
            "name" : "\u6750\u8d28.003",
            "pbrMetallicRoughness" : {
                "baseColorTexture" : {
                    "index" : 1
                },
                "metallicFactor" : 0,
                "roughnessFactor" : 0.5
            }
        }
    ],
    "meshes" : [
        {
            "name" : "\u67f1\u4f53.004",
            "primitives" : [
                {
                    "attributes" : {
                        "POSITION" : 0,
                        "NORMAL" : 1,
                        "TEXCOORD_0" : 2
                    },
                    "indices" : 3,
                    "material" : 0
                }
            ]
        },
        {
            "name" : "\u67f1\u4f53.002",
            "primitives" : [
                {
                    "attributes" : {
                        "POSITION" : 4,
                        "NORMAL" : 5,
                        "TEXCOORD_0" : 6
                    },
                    "indices" : 7,
                    "material" : 1
                }
            ]
        }
    ],
    "textures" : [
        {
            "sampler" : 0,
            "source" : 0
        },
        {
            "sampler" : 0,
            "source" : 1
        }
    ],
    "images" : [
        {
            "bufferView" : 4,
            "mimeType" : "image/png",
            "name" : "c1_o-c1_a"
        },
        {
            "bufferView" : 9,
            "mimeType" : "image/jpeg",
            "name" : "c1"
        }
    ],
    "accessors" : [
        {
            "bufferView" : 0,
            "componentType" : 5126,
            "count" : 16,
            "max" : [
                0.26620474457740784,
                1.56279718875885,
                1.9025999307632446
            ],
            "min" : [
                -0.9615583419799805,
                -0.12400373816490173,
                -0.03433522954583168
            ],
            "type" : "VEC3"
        },
        {
            "bufferView" : 1,
            "componentType" : 5126,
            "count" : 16,
            "type" : "VEC3"
        },
        {
            "bufferView" : 2,
            "componentType" : 5126,
            "count" : 16,
            "type" : "VEC2"
        },
        {
            "bufferView" : 3,
            "componentType" : 5123,
            "count" : 30,
            "type" : "SCALAR"
        },
        {
            "bufferView" : 5,
            "componentType" : 5126,
            "count" : 848,
            "max" : [
                1,
                1.3012632131576538,
                1
            ],
            "min" : [
                -1,
                -1.1298474073410034,
                -1
            ],
            "type" : "VEC3"
        },
        {
            "bufferView" : 6,
            "componentType" : 5126,
            "count" : 848,
            "type" : "VEC3"
        },
        {
            "bufferView" : 7,
            "componentType" : 5126,
            "count" : 848,
            "type" : "VEC2"
        },
        {
            "bufferView" : 8,
            "componentType" : 5123,
            "count" : 3012,
            "type" : "SCALAR"
        }
    ],
    "bufferViews" : [
        {
            "buffer" : 0,
            "byteLength" : 192,
            "byteOffset" : 0
        },
        {
            "buffer" : 0,
            "byteLength" : 192,
            "byteOffset" : 192
        },
        {
            "buffer" : 0,
            "byteLength" : 128,
            "byteOffset" : 384
        },
        {
            "buffer" : 0,
            "byteLength" : 60,
            "byteOffset" : 512
        },
        {
            "buffer" : 0,
            "byteLength" : 1198088,
            "byteOffset" : 572
        },
        {
            "buffer" : 0,
            "byteLength" : 10176,
            "byteOffset" : 1198660
        },
        {
            "buffer" : 0,
            "byteLength" : 10176,
            "byteOffset" : 1208836
        },
        {
            "buffer" : 0,
            "byteLength" : 6784,
            "byteOffset" : 1219012
        },
        {
            "buffer" : 0,
            "byteLength" : 6024,
            "byteOffset" : 1225796
        },
        {
            "buffer" : 0,
            "byteLength" : 638347,
            "byteOffset" : 1231820
        }
    ],
    "samplers" : [
        {
            "magFilter" : 9729,
            "minFilter" : 9987
        }
    ],
    "buffers" : [
        {
            "byteLength" : 1870168,
            "uri" : "data:application/octet-stream;base64,"
        }
    ]
}
